<svg width="64" height="64" viewBox="0 0 64 64" fill="none" xmlns="http://www.w3.org/2000/svg">
<circle cx="32" cy="32" r="32" fill="url(#paint0_radial_24_16)"/>
<circle cx="49" cy="28" r="5" fill="#0066FF"/>
<circle cx="28" cy="51" r="5" fill="#0066FF"/>
<circle cx="23" cy="14" r="5" fill="#0066FF"/>
<rect x="30.4198" y="18.2371" width="13" height="2" transform="rotate(25.2519 30.4198 18.2371)" fill="#FF0000"/>
<rect x="40.4866" y="19.0281" width="5.16297" height="1.44457" transform="rotate(70.2519 40.4866 19.0281)" fill="#FF0000"/>
<rect width="5.16297" height="1.44457" transform="matrix(0.941187 -0.337886 -0.337886 -0.941187 36.1594 27.2158)" fill="#FF0000"/>
<rect x="44.7389" y="33.6308" width="13" height="2" transform="rotate(129.799 44.7389 33.6308)" fill="#FF0000"/>
<rect x="41.4446" y="43.1763" width="5.16297" height="1.44457" transform="rotate(174.799 41.4446 43.1763)" fill="#FF0000"/>
<rect width="5.16297" height="1.44457" transform="matrix(0.0906418 0.995884 0.995884 -0.0906418 34.6063 36.9311)" fill="#FF0000"/>
<defs>
<radialGradient id="paint0_radial_24_16" cx="0" cy="0" r="1" gradientUnits="userSpaceOnUse" gradientTransform="translate(51 23.5) rotate(117.004) scale(58.3631)">
<stop stop-color="#D8CF00"/>
<stop offset="0.9999" stop-color="#FFF741" stop-opacity="0.34"/>
<stop offset="1" stop-color="#D9D9D9" stop-opacity="0"/>
</radialGradient>
</defs>
</svg>
